# xmcd CD database file
#
# Track frame offsets:
#	150
#	9450
#	21682
#	32722
#	43967
#	54045
#	65314
#	77660
#	89137
#	98667
#	108117
#	119115
#	129867
#	141677
#	154435
#	166580
#	176785
#	189147
#	199830
#	212584
#	226265
#	239002
#	250545
#
# Disc length: 3512 seconds
#
# Revision: 2
# Processed by: cddbd v1.5.2PL0 Copyright (c) Steve Scherf et al.
# Submitted via: CDex 1.51
#
DISCID=3d0db617
DTITLE=Ike Turner and The Kings Of Rhythm - Hey Hey
DYEAR=1900
DGENRE=Blues
TTITLE0=Hey Hey (Take 2) (Stevens 107) - Ickey Renrut
TTITLE1=Why Should I aka Tell Me Why - Ickey Renrut
TTITLE2=Jack Rabbit (Stevens 104) - Ickey Renrut
TTITLE3=Ho-Ho (Stevens 107) - Ickey Renrut
TTITLE4=In Your Eyes Baby (Stevens 104) - Ickey Renrut
TTITLE5=Star Above (Stevens 106) - Bobby Foster and Orchestra
TTITLE6=Prancin' - Ickey Renrut
TTITLE7=Angel Of Love (Stevens 106) - Bobby Foster and Orchestra
TTITLE8=I Do Love You - Bobby Foster
TTITLE9=Hey Hey (Take 1) - Ickey Renrut
TTITLE10=You're The Only One - Bobby Foster
TTITLE11=Look At That Chick (Stevens 1001) - Johnny Wright
TTITLE12=Gotta Have You For Myself (Stevens 1001) - Johnny Wright
TTITLE13=Shirley Can't You See (Stevens 102) - Little Bobby Foster with The Premiers
TTITLE14=I Woke Up One Morning (Stevens 102) - Little Bobby Foster with The Premiers
TTITLE15=I Don't Want To Lose Your Love - Sammy Grimes Band
TTITLE16=Bag Pipe Special - Sammy Grimes Band
TTITLE17=Moving Slow (Stevens 105) - Little Cooper and The Drifters
TTITLE18=Evening Train (Stevens 105) - Little Cooper and The Drifters
TTITLE19=East St. Louis Rock (Take 2) - Timothy Cooper
TTITLE20=Dear Lovin' Man (Take 3) - Timothy Cooper
TTITLE21=Leaving Kansas City - Timothy Cooper
TTITLE22=Dear Lovin' Man - Timothy Cooper
EXTD=
EXTT0=
EXTT1=
EXTT2=
EXTT3=
EXTT4=
EXTT5=
EXTT6=
EXTT7=
EXTT8=
EXTT9=
EXTT10=
EXTT11=
EXTT12=
EXTT13=
EXTT14=
EXTT15=
EXTT16=
EXTT17=
EXTT18=
EXTT19=
EXTT20=
EXTT21=
EXTT22=
PLAYORDER=
